<?xml version="1.0" standalone="no"?><!DOCTYPE svg PUBLIC "-//W3C//DTD SVG 1.1//EN" "http://www.w3.org/Graphics/SVG/1.1/DTD/svg11.dtd"><svg t="1523606998302" class="icon" style="" viewBox="0 0 1024 1024" version="1.1" xmlns="http://www.w3.org/2000/svg" p-id="2700" xmlns:xlink="http://www.w3.org/1999/xlink" width="128" height="128"><defs><style type="text/css"></style></defs><path d="M940.52 264.37A58.23 58.23 0 0 0 893.6 241H358.45a16 16 0 0 0 0 32H893.6a26.62 26.62 0 0 1 25.6 34l-26.7 92a350.72 350.72 0 0 1-317.07-2.64C472 342.68 350 339.94 244.22 386.9l-12.16-131.4-5.51-84.72a15.94 15.94 0 0 0-10.9-14.12l-75.38-25.16a52 52 0 1 0-27.46 100.2l25.81 5.58a16 16 0 1 0 6.75-31.28l-25.81-5.58a20.05 20.05 0 1 1 10.56-38.62l65.19 21.75 4.85 74.45v0.42l14.2 153.47v0.15l15.9 171.33c2.63 28.2 24.78 49.18 52.33 52.11a195.31 195.31 0 0 0-68.75 99.39l-5 17a16 16 0 0 0 15.33 20.54H247a76.69 76.69 0 0 0-15 45.38 77.38 77.38 0 0 0 154.75 0 76.69 76.69 0 0 0-15-45.37h386.48a76.66 76.66 0 0 0-15 45.38 77.39 77.39 0 0 0 154.77 0 76.69 76.69 0 0 0-15-45.37h22.83a16 16 0 0 0 0-32H245.58a163.53 163.53 0 0 1 100.9-103.83h466.33a59 59 0 0 0 56.35-42.33L921.2 415l28.8-99a58.21 58.21 0 0 0-9.48-51.63zM354.7 817.83a45.38 45.38 0 1 1-45.37-45.37 45.44 45.44 0 0 1 45.37 45.37z m511.29 0a45.39 45.39 0 1 1-45.37-45.37A45.44 45.44 0 0 1 866 817.83z m-53.18-213.21H288.68a26.56 26.56 0 0 1-26.56-24.21L247.28 420a350.62 350.62 0 0 1 313.41 4.81 383.2 383.2 0 0 0 320 15l-42.28 145.56a26.78 26.78 0 0 1-25.6 19.25z" p-id="2701" fill="#d81e06"></path></svg>